<?xml version="1.0" standalone="no"?>
<!DOCTYPE svg PUBLIC "-//W3C//DTD SVG 20010904//EN"
 "http://www.w3.org/TR/2001/REC-SVG-20010904/DTD/svg10.dtd">
<svg version="1.0" xmlns="http://www.w3.org/2000/svg"
 width="1772.000000pt" height="1772.000000pt" viewBox="0 0 1772.000000 1772.000000"
 preserveAspectRatio="xMidYMid meet">
<metadata>
Created by potrace 1.11, written by Peter Selinger 2001-2013
</metadata>
<g transform="translate(0.000000,1772.000000) scale(0.100000,-0.100000)"
fill="#000000" stroke="none">
<path d="M8790 17240 c-36 -10 -132 -37 -214 -59 -190 -53 -440 -125 -537
-157 -41 -13 -84 -26 -95 -29 -84 -17 -919 -304 -1049 -359 -40 -17 -99 -41
-105 -42 -3 0 -18 -6 -33 -12 -16 -7 -30 -12 -33 -12 -2 0 -23 -8 -47 -19 -23
-10 -67 -29 -97 -41 -30 -12 -68 -28 -85 -35 -289 -122 -526 -232 -780 -361
-121 -61 -236 -120 -255 -131 -19 -11 -55 -31 -80 -45 -41 -23 -212 -120 -252
-143 -143 -82 -504 -316 -668 -433 -279 -198 -591 -445 -828 -655 -205 -182
-263 -237 -522 -497 -204 -205 -257 -260 -385 -401 -60 -66 -264 -297 -312
-354 -23 -28 -50 -60 -60 -72 -45 -53 -67 -80 -222 -273 -90 -112 -178 -223
-195 -246 -17 -22 -63 -83 -102 -135 -39 -52 -119 -159 -177 -239 -59 -80
-110 -149 -115 -155 -13 -17 -237 -336 -298 -425 -32 -47 -104 -153 -161 -237
l-103 -152 -6 -93 c-22 -409 -28 -652 -28 -1163 0 -449 5 -690 19 -900 2 -33
6 -109 10 -170 3 -60 8 -123 10 -140 2 -16 7 -68 10 -115 3 -47 8 -104 10
-127 3 -24 7 -63 10 -88 3 -25 7 -65 10 -90 13 -120 22 -187 30 -240 3 -16 7
-52 10 -80 4 -27 8 -62 11 -77 2 -16 6 -40 8 -55 3 -16 8 -48 12 -73 4 -25 8
-54 10 -65 4 -35 45 -259 49 -275 2 -8 7 -31 10 -50 5 -28 42 -202 72 -335 2
-11 6 -29 8 -40 11 -48 115 -438 140 -520 84 -284 244 -728 367 -1019 160
-377 388 -841 564 -1144 30 -51 54 -95 54 -98 0 -2 23 -41 50 -85 28 -44 50
-82 50 -84 0 -5 190 -315 270 -440 167 -261 414 -620 608 -883 68 -92 131
-178 140 -192 9 -14 91 -122 181 -240 212 -277 225 -294 231 -300 3 -3 27 -33
53 -66 l48 -61 187 -71 c103 -39 239 -89 302 -112 63 -23 124 -45 135 -50 61
-27 690 -235 895 -296 63 -18 129 -38 145 -44 33 -10 458 -128 490 -135 11 -2
40 -9 65 -16 25 -6 52 -12 60 -14 8 -2 44 -11 80 -20 99 -25 226 -52 435 -95
181 -37 228 -46 285 -55 14 -3 63 -11 110 -19 47 -8 103 -17 125 -20 22 -4 54
-9 70 -11 35 -6 98 -15 140 -20 17 -2 53 -6 80 -9 28 -4 66 -8 85 -11 19 -2
60 -7 90 -10 30 -3 71 -8 90 -10 19 -2 73 -7 120 -10 47 -3 96 -8 110 -10 14
-2 81 -7 150 -11 69 -3 152 -8 185 -10 79 -4 679 -4 775 0 180 8 356 18 373
22 9 1 56 6 105 9 48 3 103 8 122 10 53 7 109 13 175 20 33 3 71 8 85 10 14 2
48 6 75 10 94 11 130 16 280 40 83 13 168 27 190 30 22 4 47 8 55 10 8 2 31 7
50 10 19 3 67 12 105 20 39 8 86 17 105 20 52 9 426 92 497 110 35 9 71 18 80
20 60 11 401 103 673 181 328 93 1273 405 1405 463 11 5 61 24 110 41 l90 33
115 144 c63 80 125 157 137 172 262 311 866 1155 1098 1533 5 9 35 56 65 105
30 48 60 96 65 105 6 9 22 36 36 60 230 384 485 874 634 1218 37 85 75 173 84
195 10 22 26 63 36 90 10 28 21 55 25 60 4 6 14 33 24 60 10 28 22 59 27 70
77 172 289 854 364 1175 3 12 57 253 70 310 19 86 82 426 95 515 7 44 14 87
15 97 2 9 6 38 10 65 4 26 8 59 10 73 2 14 7 45 10 70 3 25 8 61 10 80 3 19
10 78 15 130 6 52 13 106 15 120 2 14 7 57 10 96 3 39 7 85 9 102 3 16 7 72
11 124 3 51 8 109 10 128 2 19 7 82 10 140 3 58 8 130 10 160 4 51 14 293 20
490 10 275 4 1043 -10 1425 l-7 190 -81 125 c-108 168 -448 671 -484 715 -5 6
-42 57 -83 115 -86 121 -241 333 -249 340 -4 3 -45 57 -94 122 -48 64 -98 129
-111 145 -13 15 -64 78 -112 138 -77 96 -309 373 -361 430 -10 11 -54 61 -98
110 -177 199 -542 569 -724 735 -57 52 -113 104 -125 115 -19 19 -218 189
-263 226 -474 388 -913 691 -1431 987 -78 45 -144 82 -146 82 -2 0 -37 19 -78
42 -141 80 -716 363 -758 373 -3 0 -14 6 -25 12 -33 18 -339 147 -530 223
-213 86 -460 178 -715 267 -212 74 -211 73 -425 142 -88 29 -195 63 -238 77
-43 14 -86 27 -95 29 -9 3 -55 16 -102 31 -47 14 -114 34 -150 45 -36 10 -144
41 -240 69 -96 27 -178 50 -182 50 -5 0 -8 -8 -8 -17 -1 -17 -1 -17 -11 0 -12
20 -15 20 -99 -3z"/>
</g>
</svg>
